<svg xmlns="http://www.w3.org/2000/svg" viewBox="0 0 205.4 57.21"><defs><style>.cls-1{fill:#0ba1dd;}</style></defs><g id="Layer_2" data-name="Layer 2"><g id="Layer_1-2" data-name="Layer 1"><path class="cls-1" d="M96.13,51.09c0,.11-.06.16-.17.16H94.42c-.1,0-.15,0-.15-.16V41.24a.14.14,0,0,1,.15-.16H96a.15.15,0,0,1,.17.16Z"/><path class="cls-1" d="M103.44,42.61a.15.15,0,0,1-.17.17h-1.75a.14.14,0,0,0-.16.16v8.15c0,.11-.06.16-.17.16H99.68c-.11,0-.17,0-.17-.16V42.94c0-.11-.05-.16-.15-.16H97.59a.15.15,0,0,1-.16-.17V41.24a.15.15,0,0,1,.16-.16h5.68a.15.15,0,0,1,.17.16Z"/><path class="cls-1" d="M114.47,47.86a.14.14,0,0,1-.16.16h-7.38a.14.14,0,0,1-.16-.16V46.8a.15.15,0,0,1,.16-.17h7.38c.11,0,.16.06.16.17Z"/><path class="cls-1" d="M118.65,41.24a.14.14,0,0,1,.16-.16h1.49c.08,0,.12.06.12.16l0,6.47,3.29-6.55.15-.08h1.35a.15.15,0,0,1,.17.16v9.85c0,.11-.06.16-.17.16h-1.5c-.07,0-.11,0-.11-.16l0-6.41-3.3,6.49-.15.08h-1.34a.14.14,0,0,1-.16-.16Z"/><path class="cls-1" d="M134,51.09c0,.11-.06.16-.17.16h-1.51a.14.14,0,0,1-.16-.16v-4a.14.14,0,0,0-.16-.16h-3a.14.14,0,0,0-.16.16v4c0,.11-.06.16-.17.16H127.1a.14.14,0,0,1-.16-.16V41.24a.14.14,0,0,1,.16-.16h1.53a.15.15,0,0,1,.17.16v3.85c0,.1,0,.15.16.15h3a.14.14,0,0,0,.16-.15V41.24a.14.14,0,0,1,.16-.16h1.51a.15.15,0,0,1,.17.16Z"/><path class="cls-1" d="M139,45.39a.26.26,0,0,0,0-.1l0-.08-2.72-3.87a.27.27,0,0,1,0-.13c0-.08.05-.13.15-.13H138l.11.07,2.51,3.77c0,.07.08.1.12.1s.13-.07.13-.19V41.24c0-.1.05-.16.14-.16h1.33c.09,0,.14.06.14.16v9.85c0,.11-.05.16-.14.16h-1.33c-.09,0-.14,0-.14-.16V47.94l-.56-.85a.14.14,0,0,0-.13-.07s-.08,0-.11.1l-2.2,4.05-.12.08h-1.64c-.1,0-.16,0-.16-.13a.26.26,0,0,1,0-.11ZM147.41,51a.26.26,0,0,1,0,.11c0,.09-.05.13-.15.13h-1.65l-.11-.08-2.21-4.05c0-.07-.07-.1-.11-.1a.16.16,0,0,0-.13.07l-.55.85v3.15c0,.11-.05.16-.15.16h-1.33c-.09,0-.14,0-.14-.16V41.24c0-.1.05-.16.14-.16h1.33a.14.14,0,0,1,.15.16v3.59c0,.12,0,.19.12.19s.08,0,.12-.1l2.51-3.77.11-.07H147c.11,0,.16.05.16.13a.31.31,0,0,1,0,.13l-2.72,3.87a.2.2,0,0,0,0,.08.22.22,0,0,0,0,.1Z"/><path class="cls-1" d="M148.32,41.24a.15.15,0,0,1,.16-.16H150c.08,0,.13.06.13.16l0,6.47,3.29-6.55.14-.08h1.36a.14.14,0,0,1,.16.16v9.85a.14.14,0,0,1-.16.16h-1.5c-.07,0-.11,0-.11-.16l0-6.41L150,51.17l-.15.08h-1.34a.14.14,0,0,1-.16-.16Z"/><path class="cls-1" d="M163.64,51.09c0,.11-.06.16-.17.16H162c-.11,0-.17,0-.17-.16v-4a.14.14,0,0,0-.16-.16h-3a.14.14,0,0,0-.16.16v4a.14.14,0,0,1-.16.16h-1.54c-.1,0-.15,0-.15-.16V41.24a.14.14,0,0,1,.15-.16h1.54a.14.14,0,0,1,.16.16v3.85a.14.14,0,0,0,.16.15h3c.11,0,.16-.05.16-.15V41.24a.15.15,0,0,1,.17-.16h1.51a.15.15,0,0,1,.17.16Z"/><path class="cls-1" d="M165.81,41.24a.14.14,0,0,1,.16-.16h1.49c.08,0,.12.06.12.16l0,6.47,3.3-6.55.14-.08h1.35a.15.15,0,0,1,.17.16v9.85c0,.11-.06.16-.17.16h-1.49c-.08,0-.11,0-.11-.16l0-6.41-3.31,6.49-.15.08H166a.14.14,0,0,1-.16-.16Z"/><path class="cls-1" d="M177.57,41.08a3,3,0,0,1,2.18.82,2.93,2.93,0,0,1,.82,2.19,2.73,2.73,0,0,1-.83,2,3,3,0,0,1-2.17.8h-1.45a.14.14,0,0,0-.16.16v4a.14.14,0,0,1-.16.16h-1.54a.14.14,0,0,1-.16-.16V41.24a.14.14,0,0,1,.16-.16Zm1.16,3v-.15a1.17,1.17,0,0,0-.33-.82,1.13,1.13,0,0,0-.83-.34h-1.45a.14.14,0,0,0-.16.16v2.15c0,.1,0,.15.16.15h1.45a1.16,1.16,0,0,0,.83-.33A1.14,1.14,0,0,0,178.73,44.09Z"/><path class="cls-1" d="M181.89,41.24a.15.15,0,0,1,.16-.16h1.49c.09,0,.13.06.13.16l0,6.47,3.29-6.55.14-.08h1.36a.14.14,0,0,1,.16.16v9.85a.14.14,0,0,1-.16.16h-1.5c-.07,0-.11,0-.11-.16l0-6.41-3.31,6.49-.15.08h-1.34a.14.14,0,0,1-.16-.16Z"/><path class="cls-1" d="M197.21,51.09c0,.11-.06.16-.17.16h-1.51c-.11,0-.17,0-.17-.16v-4c0-.11-.05-.16-.15-.16h-3c-.1,0-.15.05-.15.16v4c0,.11-.06.16-.17.16h-1.54c-.1,0-.15,0-.15-.16V41.24a.14.14,0,0,1,.15-.16h1.54a.15.15,0,0,1,.17.16v3.85a.13.13,0,0,0,.15.15h3a.13.13,0,0,0,.15-.15V41.24a.15.15,0,0,1,.17-.16H197a.15.15,0,0,1,.17.16Z"/><path class="cls-1" d="M205.4,42.61c0,.11-.05.17-.16.17H201.4a.14.14,0,0,0-.16.16v8.15a.14.14,0,0,1-.16.16h-1.54a.14.14,0,0,1-.16-.16V41.24a.14.14,0,0,1,.16-.16h5.7a.14.14,0,0,1,.16.16Z"/><path class="cls-1" d="M111,34.11h-3.74c-.28,0-.4-.12-.4-.39V13.62c0-.28-.11-.39-.39-.39h-7.4c-.28,0-.4.11-.4.39v20.1c0,.27-.12.39-.4.39H94.48c-.28,0-.4-.12-.4-.39V9.45c0-.28.12-.4.4-.4H111c.28,0,.4.12.4.4V33.72c0,.27-.12.39-.4.39"/><path class="cls-1" d="M127.06,16.09a2.88,2.88,0,0,0-2.86-2.87h-3.58c-.28,0-.4.12-.4.4v5.29c0,.28.12.4.4.4h3.58a2.85,2.85,0,0,0,2.86-2.86Zm4.54.36c0,4.09-3,7-7.4,7h-3.58c-.28,0-.4.12-.4.4v9.83c0,.28-.12.39-.4.39H116c-.28,0-.4-.11-.4-.39V9.45c0-.28.12-.4.4-.4h8.16c4.49,0,7.4,2.9,7.4,7.4"/><path class="cls-1" d="M146.4,15.69a2.79,2.79,0,0,0-2.83-2.86h-1.95a2.85,2.85,0,0,0-2.86,2.86V27.47a2.85,2.85,0,0,0,2.86,2.86h1.95a2.79,2.79,0,0,0,2.83-2.86Zm-2.83,18.82h-1.95c-4.49,0-7.4-2.83-7.4-7V15.69c0-4.22,2.95-7,7.4-7h1.95c4.46,0,7.4,2.82,7.4,7V27.47c0,4.21-2.94,7-7.4,7"/><path class="cls-1" d="M167.47,13.23h-4.34c-.28,0-.4.12-.4.39v20.1c0,.28-.12.39-.4.39h-3.74c-.27,0-.39-.11-.39-.39V13.62c0-.27-.12-.39-.4-.39h-4.34c-.28,0-.4-.12-.4-.4V9.45c0-.28.12-.4.4-.4h14a.36.36,0,0,1,.39.4v3.38c0,.28-.11.4-.39.4"/><path class="cls-1" d="M185.17,34.11h-14c-.27,0-.39-.12-.39-.39V9.45c0-.28.12-.4.39-.4h14a.36.36,0,0,1,.4.4v3.38c0,.28-.12.4-.4.4H175.7c-.28,0-.39.11-.39.39v5.29c0,.28.11.4.39.4h7.76c.28,0,.4.12.4.4v3.38c0,.28-.12.4-.4.4H175.7c-.28,0-.39.12-.39.4v5.65c0,.28.11.39.39.39h9.47a.36.36,0,0,1,.4.4v3.39c0,.27-.12.39-.4.39"/><path class="cls-1" d="M188.89,33.72V9.45a.36.36,0,0,1,.4-.4H193c.28,0,.4.12.4.4l-.16,16L201.3,9.25l.36-.2H205c.27,0,.39.12.39.4V33.72c0,.27-.12.39-.39.39H201.3c-.27,0-.39-.12-.39-.39l.2-15.8-8.16,16-.36.2h-3.3c-.28,0-.4-.12-.4-.39"/><path class="cls-1" d="M202,3.12V2.36c0-.28-.11-.4-.4-.4h-2.06c-.28,0-.4.12-.4.4A1.09,1.09,0,0,1,198,3.48h-1.71a1.14,1.14,0,0,1-1.15-1.12c0-.28-.12-.4-.4-.4h-2c-.28,0-.4.12-.4.4v.76a3.65,3.65,0,0,0,4,3.78H198a3.67,3.67,0,0,0,4-3.78"/><path class="cls-1" d="M42.12,39A5.92,5.92,0,0,1,37,36.79c-1.6-1.66-2.21-3.68-2.22-6.6q0-2.89.86-12.24l1.1-11.9H28a211.87,211.87,0,0,1-2.06,22Q24.73,35,23.26,37a4.65,4.65,0,0,1-4,2,4.78,4.78,0,0,1-3.21-1.11A3.7,3.7,0,0,1,14.77,35q0-1.74,2.22-4.76a32.81,32.81,0,0,0,4.87-9.12C22.93,18,23.74,13,24.28,6.07H21.47a7.86,7.86,0,0,0-5.18,1.52,15.61,15.61,0,0,0-3.41,4.32H11.39a25.15,25.15,0,0,1,3.09-7.28A9.77,9.77,0,0,1,18.38.91q2-.87,7.13-.88L51.88,0V6l-9.58,0-.82,12.56c-.16,2.17-.24,4.06-.24,5.66,0,3.83.75,6.34,1.35,7a3.1,3.1,0,0,0,2.5,1.26,5.39,5.39,0,0,0,5.45-5H52c-.9,7.66-4.7,11.49-9.91,11.5"/><path class="cls-1" d="M78.23,12.44A15.18,15.18,0,0,0,76,7.55a15,15,0,0,0-3.85-3.82c-.45-.31-.91-.58-1.37-.84L72.08.65A.43.43,0,0,0,71.71,0H58.29a.43.43,0,0,0-.37.65l6.7,11.62a.44.44,0,0,0,.76,0l1.37-2.38a8.87,8.87,0,0,1,1,.51,7.36,7.36,0,0,1,2,1.72,7.86,7.86,0,0,1,1.21,2.36,11.91,11.91,0,0,1,.47,3A17.67,17.67,0,0,1,70.16,24a30.75,30.75,0,0,1-3.31,6.38A43.57,43.57,0,0,1,56.28,41a65.61,65.61,0,0,1-13.54,7.38,68.59,68.59,0,0,1-15,4.2,39.8,39.8,0,0,1-15.24-.29A15.93,15.93,0,0,1,6,49.15a8.9,8.9,0,0,1-3.18-5.94,12.48,12.48,0,0,1,1.7-7,28,28,0,0,1,4.64-6.17c.17-.66.37-1.31.58-2-.67.15-1.36.31-2,.5A30.28,30.28,0,0,0,2.4,35,15.09,15.09,0,0,0,0,43.41a12,12,0,0,0,3.85,8.13,19.2,19.2,0,0,0,7.7,4.21A43.52,43.52,0,0,0,28.33,56.9a72.62,72.62,0,0,0,16.22-3.73,70.93,70.93,0,0,0,15.08-7.32A49.91,49.91,0,0,0,72.27,34.28a37.3,37.3,0,0,0,4.46-7.7,24.74,24.74,0,0,0,2.06-9.13A19.35,19.35,0,0,0,78.23,12.44Z"/></g></g></svg>